<svg xmlns="http://www.w3.org/2000/svg" xmlns:xlink="http://www.w3.org/1999/xlink"><defs><style>
    .sprite-symbol-usage {display: none;}
    .sprite-symbol-usage:target {display: inline;}
  </style><symbol viewBox="0 20 100 80" id="bell"><path d="M90.126 66.237V50.87A30.287 30.287 0 0 0 71.06 22.746a39.529 39.529 0 0 0-11.641-2.286A34.248 34.248 0 0 0 48.3 22.746a29.821 29.821 0 0 0-19.064 28.143v15.348L21.38 82.322a3.728 3.728 0 0 0 3.346 5.368h23v.363a11.947 11.947 0 0 0 23.894 0v-.363h23.017a3.728 3.728 0 0 0 3.346-5.368Z" /><path d="M59.672 98c5.485 0 9.947-4.462 9.947-9.947V85.69h25.017c.6 0 1.148-.305 1.465-.814.317-.51.35-1.135.084-1.676l-8.059-16.5V50.87a28.182 28.182 0 0 0-4.873-15.865 28.18 28.18 0 0 0-12.909-10.391c-.376-.137-6.008-2.154-10.925-2.154-5.01 0-10.313 2.118-10.364 2.139l-.031.012a27.695 27.695 0 0 0-13.002 10.345 27.695 27.695 0 0 0-4.786 15.911v15.832l-8.06 16.503a1.718 1.718 0 0 0 .085 1.674c.318.51.866.813 1.465.814h24.999v2.363c0 5.485 4.462 9.947 9.947 9.947m0 2c-6.598 0-11.947-5.349-11.947-11.947v-.363h-23a3.728 3.728 0 0 1-3.345-5.368l7.856-16.085V50.89a29.82 29.82 0 0 1 19.067-28.143s5.633-2.286 11.116-2.286c5.482 0 11.64 2.286 11.64 2.286A30.287 30.287 0 0 1 90.127 50.87v15.367l7.856 16.085a3.728 3.728 0 0 1-3.345 5.368H71.619v.363c0 6.598-5.349 11.947-11.947 11.947ZM30.714 86.536h57.143" /></symbol><symbol viewBox="3.538 2.7 9.651 10.5" id="count"><path d="M12.587 3.417H4.14a.622.617 0 0 0-.603.612v6.285a.54.536 0 0 0 .403.516.694.689 0 0 0 .2.029h.603v1.36a.492.489 0 0 0 .013.116c.049.196.23.235.456.153a.97.963 0 0 0 .076-.032l3.244-1.597h4.054a.653.647 0 0 0 .377-.114.523.519 0 0 0 .225-.431V4.029a.62.62 0 0 0-.602-.612Z" /></symbol><symbol viewBox="8.5 11 40.847 38" id="news"><g data-name="Group"><path d="M11.37 17.048v-4.88A1.17 1.17 0 0 1 12.534 11a1.174 1.174 0 0 1 .038 0 37.787 37.788 0 0 1 22.373 8.21 38.324 38.325 0 0 1 3.276 2.922c6.618 6.617 10.812 15.666 11.126 25.666a1.172 1.172 0 0 1 0 .038A1.168 1.168 0 0 1 48.181 49H43.28a1.237 1.237 0 0 1-1.212-1.202 30.79 30.791 0 0 0-29.495-29.54c-.659-.026-1.202-.555-1.202-1.21Zm0 12.92V25.09a1.153 1.153 0 0 1 1.142-1.161 1.15 1.15 0 0 1 .05 0 24.903 24.903 0 0 1 14.818 5.777 25.303 25.304 0 0 1 1.7 1.555c4.284 4.287 7.022 10.098 7.331 16.536a1.155 1.155 0 0 1 .001.054A1.155 1.155 0 0 1 35.254 49h-4.908c-.656 0-1.186-.545-1.229-1.197a17.723 17.723 0 0 0-5.174-11.424 17.685 17.685 0 0 0-11.38-5.182 1.262 1.262 0 0 1-1.193-1.23Z" data-name="Combined Shape" /><path d="M8.5 43.733a5.217 5.217 0 1 1 0 .1" data-name="Oval 3" /></g></symbol><symbol viewBox="19 19 18 20" id="search"><g data-name="search" stroke="#22252e" fill="transparent"><path d="M19 27.45a7.5 7.5 0 1 1 0 .1" stroke-linejoin="round" stroke-linecap="round" stroke-width="2" data-name="Oval" /><path d="m37 38-5.2-5.2" /></g></symbol></defs><use id="bell-usage" xlink:href="#bell" class="sprite-symbol-usage" /><use id="count-usage" xlink:href="#count" class="sprite-symbol-usage" /><use id="news-usage" xlink:href="#news" class="sprite-symbol-usage" /><use id="search-usage" xlink:href="#search" class="sprite-symbol-usage" /></svg>