<svg xmlns="http://www.w3.org/2000/svg" viewBox="0 20 100 80">
	<g>
		<path d="M90.126 66.237V50.87A30.287 30.287 0 0 0 71.06 22.746a39.529 39.529 0 0 0-11.641-2.286A34.248 34.248 0 0 0 48.3 22.746a29.821 29.821 0 0 0-19.064 28.143v15.348L21.38 82.322a3.728 3.728 0 0 0 3.346 5.368h23v.363a11.947 11.947 0 0 0 23.894 0v-.363h23.017a3.728 3.728 0 0 0 3.346-5.368Z"/>
		<path d="M59.672 98c5.485 0 9.947-4.462 9.947-9.947V85.69h25.017c.6 0 1.148-.305 1.465-.814.317-.51.35-1.135.084-1.676l-8.059-16.5V50.87a28.182 28.182 0 0 0-4.873-15.865 28.18 28.18 0 0 0-12.909-10.391c-.376-.137-6.008-2.154-10.925-2.154-5.01 0-10.313 2.118-10.364 2.139l-.031.012a27.695 27.695 0 0 0-13.002 10.345 27.695 27.695 0 0 0-4.786 15.911v15.832l-8.06 16.503a1.718 1.718 0 0 0 .085 1.674c.318.51.866.813 1.465.814h24.999v2.363c0 5.485 4.462 9.947 9.947 9.947m0 2c-6.598 0-11.947-5.349-11.947-11.947v-.363h-23a3.728 3.728 0 0 1-3.345-5.368l7.856-16.085V50.89a29.82 29.82 0 0 1 19.067-28.143s5.633-2.286 11.116-2.286c5.482 0 11.64 2.286 11.64 2.286A30.287 30.287 0 0 1 90.127 50.87v15.367l7.856 16.085a3.728 3.728 0 0 1-3.345 5.368H71.619v.363c0 6.598-5.349 11.947-11.947 11.947Z"/>
	</g>
	<path d="M30.714 86.536h57.143" stroke-linecap="square" stroke-miterlimit="10" stroke-width="2"/>
</svg>
