<svg xmlns="http://www.w3.org/2000/svg" width="100%" height="100%" viewBox="3.538 2.7 9.651 10.5">
  <path  stroke-linejoin="round" stroke-linecap="round" stroke-width="1.5" transform="matrix(.86549 0 0 .85864 3.538 3.417)" d="M10.455 0H.697A.719.719 0 0 0 0 .713v7.319a.624.624 0 0 0 .466.601.802.802 0 0 0 .231.034h.697v1.584a.569.569 0 0 0 .015.135c.056.228.265.274.526.178a1.121 1.121 0 0 0 .088-.037l3.748-1.86h4.684a.754.754 0 0 0 .436-.133.604.604 0 0 0 .26-.502V.713c0-.374-.313-.713-.696-.713Z"/>
</svg>
