<svg xmlns="http://www.w3.org/2000/svg" width="100%" height="100%" viewBox="8.5 11 40.847 38">
  <g data-name="Group">
    <path d="M0 6.366V1.23A1.231 1.231 0 0 1 1.225 0a1.236 1.236 0 0 1 .04 0 39.777 39.777 0 0 1 23.552 8.642 40.342 40.342 0 0 1 3.448 3.076c6.967 6.965 11.382 16.49 11.712 27.017a1.234 1.234 0 0 1 0 .04A1.23 1.23 0 0 1 38.75 40h-5.16a1.302 1.302 0 0 1-1.276-1.265A32.412 32.412 0 0 0 1.265 7.641C.572 7.613 0 7.056 0 6.366Zm0 13.6v-5.133a1.214 1.214 0 0 1 1.202-1.223 1.21 1.21 0 0 1 .053 0 26.214 26.214 0 0 1 15.598 6.082 26.636 26.636 0 0 1 1.79 1.636c4.509 4.513 7.392 10.63 7.717 17.407a1.216 1.216 0 0 1 .001.057A1.216 1.216 0 0 1 25.142 40h-5.167c-.69 0-1.248-.574-1.293-1.26a18.656 18.656 0 0 0-5.447-12.025 18.616 18.616 0 0 0-11.98-5.455A1.328 1.328 0 0 1 0 19.966Z" stroke-linejoin="round" stroke-linecap="round" stroke-width="2" transform="matrix(.94997 0 0 .95 11.37 11)" data-name="Combined Shape"/>
    <path d="M8.5 43.733a5.217 5.217 0 1 1 0 .1" stroke-linejoin="round" stroke-linecap="round" stroke-width="2" data-name="Oval 3"/>
  </g>
</svg>
